<?xml version="1.0" encoding="UTF-8" standalone="no"?>
<svg
   xmlns:dc="http://purl.org/dc/elements/1.1/"
   xmlns:cc="http://creativecommons.org/ns#"
   xmlns:rdf="http://www.w3.org/1999/02/22-rdf-syntax-ns#"
   xmlns:svg="http://www.w3.org/2000/svg"
   xmlns="http://www.w3.org/2000/svg"
   xmlns:sodipodi="http://sodipodi.sourceforge.net/DTD/sodipodi-0.dtd"
   xmlns:inkscape="http://www.inkscape.org/namespaces/inkscape"
   id="svg95"
   stroke-miterlimit="10"
   stroke-linecap="square"
   stroke="none"
   fill="none"
   viewBox="0.0 0.0 348.0 348.0"
   version="1.1"
   sodipodi:docname="Module Name.svg"
   inkscape:version="0.92.4 (5da689c313, 2019-01-14)">
  <sodipodi:namedview
     pagecolor="#ffffff"
     bordercolor="#666666"
     borderopacity="1"
     objecttolerance="10"
     gridtolerance="10"
     guidetolerance="10"
     inkscape:pageopacity="0"
     inkscape:pageshadow="2"
     inkscape:window-width="1920"
     inkscape:window-height="1017"
     id="namedview57"
     showgrid="false"
     inkscape:zoom="1"
     inkscape:cx="67.98677"
     inkscape:cy="263.07015"
     inkscape:window-x="-8"
     inkscape:window-y="-8"
     inkscape:window-maximized="1"
     inkscape:current-layer="g81" />
  <metadata
     id="metadata101">
    <rdf:RDF>
      <cc:Work
         rdf:about="">
        <dc:format>image/svg+xml</dc:format>
        <dc:type
           rdf:resource="http://purl.org/dc/dcmitype/StillImage" />
      </cc:Work>
    </rdf:RDF>
  </metadata>
  <defs
     id="defs99" />
  <clipPath
     id="p.0">
    <path
       id="path2"
       clip-rule="nonzero"
       d="m0 0l348.0 0l0 348.0l-348.0 0l0 -348.0z" />
  </clipPath>
  <g
     id="g81"
     clip-path="url(#p.0)">
    <path
       style="fill:#000000;fill-opacity:0;fill-rule:nonzero"
       id="path5"
       d="M 0,0 H 348 V 348 H 0 Z" />
    <path
       style="fill:#ffffff;fill-rule:nonzero"
       id="path7"
       d="M -6,0 H 348.01575 V 347.9685 H -6 Z" />
    <path
       style="fill:#000000;fill-opacity:0;fill-rule:nonzero"
       id="path9"
       d="m 5.07874,5.7758217 h 336.9134 V 343.44512 H 5.07874 Z" />
    <path
       style="fill-rule:nonzero;stroke:#000000;stroke-width:2;stroke-linecap:butt;stroke-linejoin:round"
       id="path11"
       d="m 5.07874,5.7758217 h 336.9134 V 343.44512 H 5.07874 Z" />
    <path
       style="fill:#000000;fill-rule:nonzero"
       id="path13"
       d="m 133.84251,15.666667 h 74.33072 v 56.881886 h -74.33072 z" />
    <path
       style="fill:#ffffff;fill-rule:nonzero"
       id="path17"
       d="M 15.262467,17.706038 H 125.15223 v 54.83464 H 15.262467 Z" />
    <path
       style="fill-rule:nonzero;stroke:#000000;stroke-width:2;stroke-linecap:butt;stroke-linejoin:round"
       id="path19"
       d="M 15.262467,17.706038 H 125.15223 v 54.83464 H 15.262467 Z" />
    <path
       style="fill:#000000;fill-opacity:0;fill-rule:nonzero"
       id="path21"
       d="M 15.262467,72.65354 54.947507,18.5748" />
    <path
       style="fill-rule:nonzero;stroke:#000000;stroke-width:2;stroke-linecap:butt;stroke-linejoin:round"
       id="path23"
       d="M 15.262467,72.65354 54.947507,18.5748" />
    <path
       style="fill:#000000;fill-opacity:0;fill-rule:nonzero"
       id="path25"
       d="M 37.56649,72.65354 77.251533,18.5748" />
    <path
       style="fill-rule:nonzero;stroke:#000000;stroke-width:2;stroke-linecap:butt;stroke-linejoin:round"
       id="path27"
       d="M 37.56649,72.65354 77.251533,18.5748" />
    <path
       style="fill:#000000;fill-opacity:0;fill-rule:nonzero"
       id="path29"
       d="M 59.870514,72.65354 99.555557,18.5748" />
    <path
       style="fill-rule:nonzero;stroke:#000000;stroke-width:2;stroke-linecap:butt;stroke-linejoin:round"
       id="path31"
       d="M 59.870514,72.65354 99.555557,18.5748" />
    <path
       style="fill:#000000;fill-opacity:0;fill-rule:nonzero"
       id="path33"
       d="M 82.17454,72.65354 121.85958,18.5748" />
    <path
       style="fill-rule:nonzero;stroke:#000000;stroke-width:2;stroke-linecap:butt;stroke-linejoin:round"
       id="path35"
       d="M 82.17454,72.65354 121.85958,18.5748" />
    <path
       style="fill:#ffffff;fill-rule:nonzero"
       id="path37"
       d="M 32.97638,83.031494 H 315.02362 V 325.3937 H 32.97638 Z" />
    <path
       style="fill-rule:nonzero;stroke:#000000;stroke-width:2;stroke-linecap:butt;stroke-linejoin:round"
       id="path39"
       d="M 32.97638,83.031494 H 315.02362 V 325.3937 H 32.97638 Z" />
    <path
       style="fill:#ffffff;fill-rule:nonzero"
       id="path41"
       d="m 216.86351,16.633858 h 109.88975 v 54.83465 H 216.86351 Z" />
    <path
       style="fill-rule:nonzero;stroke:#000000;stroke-width:2;stroke-linecap:butt;stroke-linejoin:round"
       id="path43"
       d="m 216.86351,16.633858 h 109.88975 v 54.83465 H 216.86351 Z" />
    <path
       style="fill:#000000;fill-opacity:0;fill-rule:nonzero"
       id="path45"
       d="M 216.86351,71.58137 256.54855,17.502627" />
    <path
       style="fill-rule:nonzero;stroke:#000000;stroke-width:2;stroke-linecap:butt;stroke-linejoin:round"
       id="path47"
       d="M 216.86351,71.58137 256.54855,17.502627" />
    <path
       style="fill:#000000;fill-opacity:0;fill-rule:nonzero"
       id="path49"
       d="M 239.16754,71.58137 278.85257,17.502627" />
    <path
       style="fill-rule:nonzero;stroke:#000000;stroke-width:2;stroke-linecap:butt;stroke-linejoin:round"
       id="path51"
       d="M 239.16754,71.58137 278.85257,17.502627" />
    <path
       style="fill:#000000;fill-opacity:0;fill-rule:nonzero"
       id="path53"
       d="M 261.47156,71.58137 301.15662,17.502627" />
    <path
       style="fill-rule:nonzero;stroke:#000000;stroke-width:2;stroke-linecap:butt;stroke-linejoin:round"
       id="path55"
       d="M 261.47156,71.58137 301.15662,17.502627" />
    <path
       style="fill:#000000;fill-opacity:0;fill-rule:nonzero"
       id="path57"
       d="M 283.7756,71.58137 323.46063,17.502627" />
    <path
       style="fill-rule:nonzero;stroke:#000000;stroke-width:2;stroke-linecap:butt;stroke-linejoin:round"
       id="path59"
       d="M 283.7756,71.58137 323.46063,17.502627" />
    <path
       style="fill:#000000;fill-rule:nonzero"
       id="path61"
       d="M 44.490814,88.11811 H 303.48294 V 252.05512 H 44.490814 Z" />
    <path
       style="fill-rule:nonzero;stroke:#000000;stroke-width:1;stroke-linecap:butt;stroke-linejoin:round"
       id="path63"
       d="m 113.77165,267.51697 h 49.25984 v 45.48032 h -49.25984 z" />
    <path
       style="fill:#000000;fill-opacity:0;fill-rule:nonzero"
       id="path65"
       d="m 182.79527,267.51697 h 49.25984 v 45.48032 h -49.25984 z" />
    <path
       style="fill-rule:nonzero;stroke:#000000;stroke-width:1;stroke-linecap:butt;stroke-linejoin:round"
       id="path67"
       d="m 182.79527,267.51697 h 49.25984 v 45.48032 h -49.25984 z" />
    <path
       style="fill:#ffffff;fill-rule:nonzero"
       id="path69"
       d="m 260.08136,270.74014 h 36.72443 v 25.63782 h -36.72443 z" />
    <path
       style="fill-rule:nonzero;stroke:#000000;stroke-width:2;stroke-linecap:butt;stroke-linejoin:round"
       id="path71"
       d="m 260.08136,270.74014 h 36.72443 v 25.63782 h -36.72443 z" />
    <path
       style="fill:#ffffff;fill-rule:nonzero"
       id="path73"
       d="m 265.46457,305.50656 v 0 c 0,-2.35699 1.91071,-4.26773 4.2677,-4.26773 v 0 c 1.1319,0 2.21741,0.44965 3.01773,1.25 0.80035,0.80035 1.25,1.88586 1.25,3.01773 v 0 c 0,2.35699 -1.91074,4.26773 -4.26773,4.26773 v 0 c -2.35699,0 -4.2677,-1.91074 -4.2677,-4.26773 z" />
    <path
       style="fill-rule:nonzero;stroke:#000000;stroke-width:2;stroke-linecap:butt;stroke-linejoin:round"
       id="path75"
       d="m 265.46457,305.50656 v 0 c 0,-2.35699 1.91071,-4.26773 4.2677,-4.26773 v 0 c 1.1319,0 2.21741,0.44965 3.01773,1.25 0.80035,0.80035 1.25,1.88586 1.25,3.01773 v 0 c 0,2.35699 -1.91074,4.26773 -4.26773,4.26773 v 0 c -2.35699,0 -4.2677,-1.91074 -4.2677,-4.26773 z" />
    <path
       style="fill:#ffffff;fill-rule:nonzero"
       id="path77"
       d="m 282.8084,305.50656 v 0 c 0,-2.35699 1.91071,-4.26773 4.2677,-4.26773 v 0 c 1.13187,0 2.21738,0.44965 3.01773,1.25 0.80035,0.80035 1.25,1.88586 1.25,3.01773 v 0 c 0,2.35699 -1.91074,4.26773 -4.26773,4.26773 v 0 c -2.35699,0 -4.2677,-1.91074 -4.2677,-4.26773 z" />
    <path
       style="fill-rule:nonzero;stroke:#000000;stroke-width:2;stroke-linecap:butt;stroke-linejoin:round"
       id="path79"
       d="m 282.8084,305.50656 v 0 c 0,-2.35699 1.91071,-4.26773 4.2677,-4.26773 v 0 c 1.13187,0 2.21738,0.44965 3.01773,1.25 0.80035,0.80035 1.25,1.88586 1.25,3.01773 v 0 c 0,2.35699 -1.91074,4.26773 -4.26773,4.26773 v 0 c -2.35699,0 -4.2677,-1.91074 -4.2677,-4.26773 z" />
    <text
       xml:space="preserve"
       style="font-style:normal;font-weight:normal;font-size:29.10884666px;line-height:1.25;font-family:sans-serif;letter-spacing:0px;word-spacing:0px;fill:#ffffff;fill-opacity:1;stroke:none;stroke-width:1.55940259"
       x="151.05284"
       y="54.83287"
       id="text886"
       transform="scale(0.99870019,1.0013015)"><tspan
         sodipodi:role="line"
         id="tspan884"
         x="151.05284"
         y="54.83287"
         style="stroke-width:1.55940259">21</tspan></text>
  </g>
  <g
     id="text85"
     style="font-size:42px;font-family:'DejaVu Sans', sans-serif;text-anchor:middle;fill:#ffffff"
     aria-label="[ TEXT ]">
    <path
       id="path103"
       style=""
       d="m 94.839844,106.08984 h 8.695316 v 2.93262 h -4.921879 v 31.58203 h 4.921879 v 2.93262 h -8.695316 z" />
    <path
       id="path105"
       style=""
       d="m 120.88477,107.38184 h 25.90136 v 3.48632 H 135.91699 V 138 h -4.16308 v -27.13184 h -10.86914 z" />
    <path
       id="path107"
       style=""
       d="m 150.80566,107.38184 h 19.35938 v 3.48632 h -15.2168 v 9.06446 h 14.58106 v 3.48633 h -14.58106 v 11.09472 h 15.58594 V 138 h -19.72852 z" />
    <path
       id="path109"
       style=""
       d="m 175.90723,107.38184 h 4.45019 l 7.6084,11.38183 7.64941,-11.38183 h 4.4502 l -9.84375,14.7041 10.5,15.91406 h -4.4502 L 187.6582,124.97754 178.9834,138 h -4.4707 l 10.93066,-16.34473 z" />
    <path
       id="path111"
       style=""
       d="m 201.19336,107.38184 h 25.90137 v 3.48632 H 216.22559 V 138 h -4.16309 v -27.13184 h -10.86914 z" />
    <path
       id="path113"
       style=""
       d="m 253.13965,106.08984 v 37.44727 h -8.69531 v -2.93262 h 4.90136 v -31.58203 h -4.90136 v -2.93262 z" />
  </g>
  <rect
     style="fill:#ffffff;fill-opacity:1;fill-rule:evenodd;stroke:#ffffff;stroke-opacity:1"
     id="rect864"
     width="308.18643"
     height="252.15254"
     x="21.381355"
     y="79.627121" />
  <text
     xml:space="preserve"
     style="font-style:normal;font-weight:normal;font-size:96px;line-height:1.25;font-family:sans-serif;letter-spacing:0px;word-spacing:0px;fill:#000000;fill-opacity:1;stroke:none"
     x="23.593222"
     y="227.08476"
     id="text868"><tspan
       sodipodi:role="line"
       id="tspan866"
       x="23.593222"
       y="227.08476">😢</tspan></text>
  <ellipse
     style="fill:#000000;fill-opacity:1;fill-rule:evenodd;stroke:#ffffff;stroke-width:1.20554566;stroke-opacity:1"
     id="path870"
     cx="268.74149"
     cy="207.91527"
     rx="67.359093"
     ry="65.515869" />
  <path
     sodipodi:type="star"
     style="fill:#ffffff;fill-opacity:1;fill-rule:evenodd;stroke:#ffffff;stroke-opacity:1"
     id="path874"
     sodipodi:sides="3"
     sodipodi:cx="179.16103"
     sodipodi:cy="274.27118"
     sodipodi:r1="53.089867"
     sodipodi:r2="26.544933"
     sodipodi:arg1="0.013887996"
     sodipodi:arg2="1.0610855"
     inkscape:flatsided="true"
     inkscape:rounded="0"
     inkscape:randomized="0"
     d="m 232.24577,275.00847 -80.26563,44.8668 1.27702,-91.94547 z"
     inkscape:transform-center-x="-12.480005"
     inkscape:transform-center-y="-0.36153778"
     transform="matrix(0.96356326,0,0,0.98072047,96.705405,-62.093394)" />
  <rect
     style="fill:#ffffff;fill-opacity:1;fill-rule:evenodd;stroke:#000000;stroke-width:1.16541111;stroke-opacity:1"
     id="rect872"
     width="167.28979"
     height="162.65666"
     x="11.693612"
     y="138" />
  <text
     xml:space="preserve"
     style="font-style:normal;font-weight:normal;font-size:111.87947083px;line-height:1.25;font-family:sans-serif;letter-spacing:0px;word-spacing:0px;fill:#000000;fill-opacity:1;stroke:none;stroke-width:1.16541111"
     x="12.338372"
     y="272.90201"
     id="text876"
     transform="scale(1.0186845,0.98165819)"><tspan
       sodipodi:role="line"
       id="tspan874"
       x="12.338372"
       y="272.90201"
       style="stroke-width:1.16541111">😥</tspan></text>
  <ellipse
     style="fill:#ffffff;fill-opacity:1;fill-rule:evenodd;stroke:#000000;stroke-width:1.16541111;stroke-opacity:1"
     id="path878"
     cx="155.68019"
     cy="159.50885"
     rx="12.691828"
     ry="12.230515" />
</svg>
